<svg width="24" height="24" viewBox="0 0 24 24" fill="none" xmlns="http://www.w3.org/2000/svg">
<path d="M14.5849 12.0001L22.4682 4.13506C22.8134 3.78983 23.0074 3.32161 23.0074 2.83339C23.0074 2.34517 22.8134 1.87695 22.4682 1.53172C22.123 1.1865 21.6548 0.992554 21.1666 0.992554C20.6783 0.992554 20.2101 1.1865 19.8649 1.53172L11.9999 9.41506L4.13489 1.53172C3.78966 1.1865 3.32144 0.992554 2.83322 0.992554C2.345 0.992554 1.87678 1.1865 1.53155 1.53172C1.18633 1.87695 0.992387 2.34517 0.992387 2.83339C0.992387 3.32161 1.18633 3.78983 1.53155 4.13506L9.41489 12.0001L1.53155 19.8651C1.35972 20.0355 1.22333 20.2383 1.13025 20.4617C1.03718 20.6851 0.989258 20.9247 0.989258 21.1667C0.989258 21.4087 1.03718 21.6484 1.13025 21.8718C1.22333 22.0952 1.35972 22.298 1.53155 22.4684C1.70199 22.6402 1.90476 22.7766 2.12816 22.8697C2.35157 22.9628 2.5912 23.0107 2.83322 23.0107C3.07524 23.0107 3.31487 22.9628 3.53828 22.8697C3.76169 22.7766 3.96446 22.6402 4.13489 22.4684L11.9999 14.5851L19.8649 22.4684C20.0353 22.6402 20.2381 22.7766 20.4615 22.8697C20.6849 22.9628 20.9245 23.0107 21.1666 23.0107C21.4086 23.0107 21.6482 22.9628 21.8716 22.8697C22.095 22.7766 22.2978 22.6402 22.4682 22.4684C22.6401 22.298 22.7764 22.0952 22.8695 21.8718C22.9626 21.6484 23.0105 21.4087 23.0105 21.1667C23.0105 20.9247 22.9626 20.6851 22.8695 20.4617C22.7764 20.2383 22.6401 20.0355 22.4682 19.8651L14.5849 12.0001Z" fill="white"/>
</svg>
